# xmcd
#
# Track frame offsets:
#	150
#	11757
#	29325
#	50009
#	71061
#	83919
#	102389
#	110439
#	126580
#	150116
#	163580
#	186612
#	208186
#
# Disc length: 2834 seconds
#
# Revision: 0
# Processed by: cddbd v1.5.2PL0 Copyright (c) Steve Scherf et al.
# Submitted via: dBpowerAMP V4.0
#
DISCID=b90b100d
DTITLE=Robert Bobby - Today!
DYEAR=2006
DGENRE=Country
TTITLE0=Older than Old and In the Way
TTITLE1=Feel So Blue
TTITLE2=Sweet Potato Vine
TTITLE3=Secret of the Heart
TTITLE4=Hearts and Diamonds
TTITLE5=Ask a Man Who Owns One
TTITLE6=Spend a Little Nighttime
TTITLE7=Dance
TTITLE8=Stop in the Name of Love
TTITLE9=Love Drunk
TTITLE10=Little Bit Nasty
TTITLE11=Copper Kettle
TTITLE12=Olde than Old - Banjo Reprise
EXTD=
EXTT0=
EXTT1=
EXTT2=
EXTT3=
EXTT4=
EXTT5=
EXTT6=
EXTT7=
EXTT8=
EXTT9=
EXTT10=
EXTT11=
EXTT12=
PLAYORDER=
